<?xml version="1.0" encoding="utf-8"?>
<!-- Generator: Adobe Illustrator 15.0.0, SVG Export Plug-In . SVG Version: 6.00 Build 0)  -->
<!DOCTYPE svg PUBLIC "-//W3C//DTD SVG 1.1//EN" "http://www.w3.org/Graphics/SVG/1.1/DTD/svg11.dtd">
<svg version="1.1" id="Layer_1" xmlns="http://www.w3.org/2000/svg" xmlns:xlink="http://www.w3.org/1999/xlink" x="0px" y="0px"
	 width="936px" height="936px" viewBox="0 0 936 936" enable-background="new 0 0 936 936" xml:space="preserve">
<g fill="currentColor">
	<path d="M370.818,242.666c7.599,5.418,21.107,4.929,29.063,9.991C395.39,244.13,383.546,242.956,370.818,242.666z"/>
	<path d="M391.707,266.28c10.24-0.465,23.743,2.811,27.248-3.633c-16.547-2.756-35.667-2.61-52.678-0.908
		C370.233,269.296,382.234,266.71,391.707,266.28z"/>
	<path d="M460.734,297.161c3.082-7.007-2.374-11.731-9.083-11.807C454.046,289.922,458.889,292.042,460.734,297.161z"/>
	<path d="M421.679,347.114c-2.321-3.602-3.285-9.679-1.816-14.532c-0.908,0-1.816,0-2.725,0
		C416.357,337.139,415.798,349.73,421.679,347.114z"/>
	<path d="M599.696,372.545c0.115,14.824,1.538,35.924,3.633,51.77C612.052,410.769,609.471,382.653,599.696,372.545z"/>
	<path d="M589.705,394.343c0.678-5.277,1.476-13.524-4.541-14.532C585.225,386.109,584.549,393.141,589.705,394.343z"/>
	<path d="M594.246,413.417c0.413-5.56-1.375-8.918-4.541-10.899C589.456,407.913,591.382,411.134,594.246,413.417z"/>
	<path d="M592.43,433.398c-1.161-0.05-1.258-1.164-2.725-0.908c-1.38,2.043-1.927,9.323,1.816,9.083
		C593.043,440.065,592.244,436.24,592.43,433.398z"/>
	<path d="M503.421,464.278c2.506-6.075,11.235-10.422,10.899-16.349C505.788,447.883,500.569,455.965,503.421,464.278z"/>
	<path d="M589.705,457.012c-0.812,2.558-1.987,9.465,0,11.808C591.731,466.722,592.811,458.858,589.705,457.012z"/>
	<path d="M448.019,463.37c-3.041,6.949-7.634,12.347-13.623,16.348c-1.344,6.352-4.629,15.183-9.992,14.532
		c-0.732-4.414-0.068-10.224-2.725-12.716c-3.482,17.393-7.636,41.797-5.449,59.037c11.552-3.586,4.357-25.918,9.082-36.331
		c10.491,0.987,0.834,19.108,9.992,22.707c1.151-6.416,3.902-11.235,4.541-18.165C423.279,487.554,459.3,479.661,448.019,463.37z"/>
	<path d="M596.062,505.149c-1.671-8.623-0.848-19.739-3.633-27.248C580.155,482.988,592.095,499.504,596.062,505.149z"/>
	<path d="M396.249,484.26c-0.307,6.669-4.436,14.318-2.725,19.98C399.746,500.541,403.975,489.771,396.249,484.26z"/>
	<path d="M376.267,526.947c-1.64,18.062-21.355,22.813-24.523,36.33c11.231,1.544,9.78-9.596,18.166-10.898
		c2.87-5.607,6.875-10.079,9.99-15.44C378.464,533.833,379.802,527.954,376.267,526.947z"/>
	<path d="M383.533,544.204c2.584,1.05,1.284,5.981,4.541,6.357c0.445-5.325,2.883-13.442,1.816-17.256
		C387.872,537.039,385.08,539.999,383.533,544.204z"/>
	<path d="M408.963,549.653c0.405-2.926,1.741-4.921,1.816-8.174c-1.513,0-3.027,0-4.541,0
		C406.255,545.097,407.108,547.876,408.963,549.653z"/>
	<path d="M467.092,686.799c2.951,7.645,17.794,3.398,27.247,4.542C490.873,683.271,475.066,682.846,467.092,686.799z"/>
	<path d="M350.836,700.423c3.83,3.834,12.117,0.464,13.624-3.633C359.929,695.19,352.362,696.224,350.836,700.423z"/>
	<path d="M517.953,704.056c7.481,5.318,24.958,4.474,30.88-1.816C540.346,700.369,523.941,698.362,517.953,704.056z"/>
	<path d="M266.052,619.955c0.417-0.417,0.827-0.84,1.225-1.275C266.815,619.104,266.41,619.529,266.052,619.955z"/>
	<path d="M883.978,649.561c-7.94-2.854-16.06-7.468-24.522-9.991c-10.653-3.174-20.876-2.555-29.973-4.541
		c-16.297-3.557-26.267-14.135-41.779-18.165c33.232,2.705,65.07,8.733,99.907,6.358c5.913-0.403,15.461-0.687,19.981-4.542
		c-3.175-8.396-14.854-4.946-22.706-7.266c-14.033-4.143-22.86-15.603-36.329-19.981c-12.39-4.026-25.471-3.967-40.872-6.357
		c-11.563-1.795-22.66-7.548-33.605-13.624c-10.939-6.071-23.051-11.457-29.972-17.256c-10.325-8.651-5.539-16.861-8.174-31.789
		c-0.804-4.547-4.719-8.41-5.45-12.716c-1.153-6.796,2.853-14.384,0.908-23.614c-1.714-8.132-12.634-13.491-14.531-22.706
		c-0.8-3.874,1.15-8.406,0-13.624c-1.198-5.428-6.942-9.704-8.175-15.44c-0.65-3.027,0.481-6.927,0-9.991
		c-1.253-7.978-6.83-14.961-7.266-23.615c-0.979-19.45-1.166-49.15,2.725-63.577c-6.233-10.195-4.778-23.151-9.082-34.513
		c-2.079-5.488-7.917-8.159-9.084-13.624c-2.629-12.324,2.885-22.731-1.816-33.605c-8.053-18.63-69.866-13.943-96.273-12.715
		c-40.366,1.878-82.88,12.833-118.072,9.083c2.498-16.426-7.403-15.749-16.349-21.798c-4.644-3.141-5.783-6.525-8.174-7.266
		c-4.85-1.504-18.764-0.271-22.707,0c-38.349,2.638-97.544,4.883-114.439,25.431c-18.373,106.966-42.332,208.344-75.384,300.63
		c-21.698,7.682-31.943,29.384-51.771,41.779c-18.595,11.627-48.561,13.244-73.568,18.165
		c-26.134,5.143-45.319,23.663-63.578,29.063c-5.103,1.51-14.239,0.006-16.348,6.357c7.905,4.507,20.602,3.233,31.789,2.726
		c18.248-0.83,36.706-1.721,49.954-1.816c-3.687,11.148-19.295,10.373-32.697,11.807c-3.002,15.768-32.208,5.333-38.146,18.166
		c23.577-2.46,49.489-2.584,68.119-9.992c7.375,3.326,11.568-6.39,19.073-2.725c-2.803,4.162-10.822,3.104-10.898,9.992
		c14.917,2.979,27.207-9.025,40.871-7.268c-8.471,8.696-21.083,14.014-31.789,19.982c-13.354,7.446-30.529,8.781-43.596,18.165
		c27.571,3.369,55.562,3.124,84.467,1.816c16.442-0.743,36.944-7.341,53.586-10.898c17.966-3.841,39.814-7.787,49.954-15.44
		c4.882-3.686,6.772-10.894,10.899-14.533c8.435-7.437,19.777-9.459,24.523-19.072c5.575-11.292-1.87-24.295,7.266-39.055
		c-0.027,7.293-0.312,14.844,1.816,19.981c8.223-4.774,1.2-23.495,9.991-25.431c8.311-1.83,12.516,12.822,11.807,24.522
		c-5.679,1.686-3.946,7.594-4.541,12.715c-0.039,3.292-6.448,0.214-5.449,4.541c0,3.331,0,6.66,0,9.991
		c-6.675,6.949-13.26,13.258-22.706,17.258c-3.761,1.591-8.254,1.376-11.808,3.633c-3.11,1.975-4.532,5.808-7.266,8.174
		c-2.238,1.937-6.589,2.874-9.991,5.449c-3.841,2.907-5.537,6.624-9.083,8.175c-3.636,1.588-7.625,0.645-11.807,1.816
		c-6.933,1.941-12.902,7.911-19.073,9.99c-4.506,1.518-9.084-0.94-12.716,4.541c55.769,12.135,89.643-19.767,135.329-26.339
		c0.695-5.236-6.238-2.844-7.266-6.357c5.032-7.631,12.931-2.899,22.707-4.541c8.138-1.367,11.734-8.176,17.256-8.176
		c5.508,0,7.86,4.288,12.715,5.451c5.023-3.454,7.757-9.199,9.99-15.441c-5.251-0.803-6.146-5.963-13.623-4.541
		c5.073-10.6,16.555-1.136,22.706,2.725c-0.109,2.616-3.873,1.576-3.633,4.541c6.174-0.423,4.428,7.077,7.266,9.992
		c-6.891,1.403-5.753,7.893-12.716,10.898c-10.3,4.445-27.744-1.98-32.696,9.082c24.213,3.277,55.734-1.753,78.109-6.357
		c0.464-2.564,2.198-3.857,2.726-6.357c-6.377-6.642-16.712-9.326-19.073-19.982c12.643,8.853,27.114,15.876,45.412,19.074
		c-0.835-3.118-8.774-6.957-9.083-13.625c3.666,5.752,13.043,4.877,18.165,0.908c8.081,7.965,21.982,10.11,34.514,13.625
		c-2.655,5.215-9.937,5.807-18.165,5.449c7.135,17.519,28.709,2.211,38.146,2.725c7.533,0.408,17.214,11.722,25.433,15.44
		c10.688,4.835,30.783,5.598,44.503,4.541c8.697-0.67,17.994-5.173,27.248-4.541c19.997,1.363,42.778,23.112,61.761,7.266
		c-22.505,0.35-38.321-18.131-60.853-19.981c-12.188-1-24.703,1.465-37.238,0c-21.855-2.554-42.413-14.772-54.494-29.973
		c-2.847-3.58-4.171-8.122-7.268-11.807c-4.444-5.291-12.321-8.013-17.256-14.532c-2.286-3.021-1.574-7.361-6.358-9.083
		c-2.524,5.78,5.072,12.705,3.634,17.257c-12.571-0.446-7.696-18.339-21.798-17.257c-0.688,3.171,2.749,6.858,0,9.083
		c-8.463,4.346-13.082-5.865-19.981-7.266c-5.491-1.115-12.056,3.974-17.257-0.908c4.322-14.234,23.926-9.943,39.055-16.349
		c11.449-4.847,19.664-16.756,31.788-18.165c4.597-0.534,8.936,0.648,13.625,0.908c31.117,1.724,66.831,3.767,78.108,24.522
		c-8.734-4.41-20.037-1.229-29.063-4.541c-6.456-2.367-14.415-12.315-19.981-2.725c11.84,11.764,32.353,5.988,49.045,13.623
		c4.903,2.243,9.348,7.111,13.624,9.991c15.359,10.343,32.914,10.405,54.495,16.349c11.257,3.1,20.327,10.079,32.696,14.531
		c18.917,6.811,41.91,7.478,44.504,24.523c-8.018-5.262-23.923-14.513-30.88-2.725c-5.159-4.535-11.327-12.884-21.798-9.082
		c1.552,2.413,2.469,10.205,1.816,11.807c-5.345-3.132-7.48-9.475-10.898-14.531c-13.041,1.156-24.449-10.577-35.423-12.717
		c-5.57-1.086-11.709,0.686-17.257,0c-13.646-1.686-21.95-10.91-32.696-14.532c-9.602-3.234-19.852-2.41-29.063-5.449
		c-20.545-6.774-31.892-29.219-51.771-30.88c3.207,7.006,11.335,9.273,16.35,15.44c4.432,5.448,5.865,13.503,9.991,19.072
		c6.396,8.637,16.274,11.864,19.072,20.89c-10.436-3.792-22.738-5.719-31.788-10.898c5.478,7.531,15.772,10.188,26.339,13.623
		c8.741,2.843,21.631,11.192,29.063,11.809c5.694,0.471,12.308-3.005,18.165-2.725c7.253,0.345,16.23,4.691,25.431,7.266
		c9.155,2.56,19.386,3.483,27.247,6.357c12.321,4.504,22.351,8.332,36.331,9.083c13.106,0.704,24.207-0.077,33.604-0.908
		c24.283-2.148,45.276,14.004,70.844,5.449c-2.914-10.291-14.48-9.331-22.706-14.532c-7.254-4.586-11.932-13.24-19.073-17.256
		c-11.264-6.336-27.365-5.958-33.605-19.074c13.229,2.054,26.039-1.329,39.055,0.908c8.246,1.418,16.465,6.044,24.522,6.357
		c2.854,0.111,6.037-1.53,9.082-1.816c17.638-1.654,32.78,8.447,49.046,7.266c10.096-0.732,22.744,2.31,32.697-3.633
		C902.787,652.48,892.718,652.703,883.978,649.561z M332.671,670.451c-3.602,4.268-9.631,6.11-14.532,9.082
		c3.038-4.236,9.312-13.087,14.532-18.166C332.671,664.395,332.671,667.424,332.671,670.451z M559.733,262.647
		c26.795-2.481,56.079-4.541,88.1-4.541c9.988,0,22.016-2.083,26.339,5.449c-28.617,16.358-80.105,10.998-120.796,13.624
		c-8.226,0.531-14.144,2.79-20.891,5.45C534.83,269.23,551.766,270.422,559.733,262.647z M660.548,318.05
		c-1.405-11.947-10.455-24.91-3.633-36.33c-0.5-2.014,1.735-1.293,1.816-2.725c1.467-0.256,1.563,0.858,2.725,0.908
		c7.501,29.307,5.404,70.38,4.542,105.356c-6.001-7.53-5.031-19.231-5.45-29.972C660.088,343.464,661.979,330.215,660.548,318.05z
		 M325.405,247.207c22.124-3.149,55.386-12.505,82.65-14.532c9.768-0.726,21.538-3.286,29.973-0.909
		c3.848,1.085,5.081,6.017,9.082,8.174c5.248,2.829,13.399,0.128,13.624,7.266c-5.388,3.648-11.617,0.909-17.257,1.816
		c-3.788,0.61-6.889,3.7-9.992,3.633c-9.878-0.212-15.694-13.883-29.063-10.899c6.782,10.172,24.893,9.015,32.698,18.165
		c0.681,3.104-3.69,1.154-2.725,4.541c2.665,1.875,6.549,2.533,9.99,3.633c-1.793,6.08-8.533,7.21-14.533,9.083
		c8.679,9.108,29.614-1.182,39.963,3.633c-0.235,10.502-0.304,20.173,0.908,26.339c-35.999-7.3-79.821-14.633-115.348-25.431
		c1.84-3.306,7.12-3.174,11.808-3.633c-11.032-9.858-37.338-4.442-43.596-19.073c9.179-2.022,20.263-2.14,28.155-5.45
		C345.127,249.283,328.877,254.633,325.405,247.207z M373.542,401.609c-1.716-0.101-0.63-3.003-2.725-2.725
		c-1.857,6.015-0.81,14.934-7.266,16.349c2.77-5.96,2.858-12.016,1.816-19.981c6.385-5.12,8.875-14.134,12.715-21.798
		C382.583,382.062,378.228,396.263,373.542,401.609z M374.451,420.683c-3.059,8.143-2.61,19.792-11.807,21.798
		C363.597,435.858,365.888,422.722,374.451,420.683z M319.047,269.005c13.406,9.3,23.509,21.902,43.596,24.522
		c-0.233,3.562,3.285,3.375,2.725,7.266c-6.856-7.679-14.987-0.754-16.349,7.266c-3.757-2.222-0.984-7.52-1.816-9.991
		C342.633,284.493,315.48,291.094,319.047,269.005z M353.561,459.737c0.295-3.338,2.24-5.026,2.725-8.175
		C359.07,451.282,357.096,460.439,353.561,459.737z M339.937,504.24c1.127,4.778-4.049,11.076-7.266,14.533
		C330.179,512.63,336.221,507.198,339.937,504.24z M319.047,518.773c1.751-8.659,6.343-26.804,13.624-29.973
		C332.197,499.23,326.967,512.762,319.047,518.773z M117.417,653.193c1.258-5.705,5.592-8.334,11.807-9.083
		C128.677,650.528,124.875,653.689,117.417,653.193z M146.48,654.102c5.236-5.058,11.539-9.049,19.982-10.899
		c-0.467,4.983-2.74,8.159-4.541,11.808C158.347,647.697,149.887,652.738,146.48,654.102z M312.689,550.562
		c-0.003,2.194,3.18,5.806,4.542,3.634c-0.633,7.301-14.626,13.75-12.715,23.614c4.415,0.161,6.707-9.631,12.715-10.899
		c1.223,13.636-5.669,19.156-15.44,21.798c-1.143,12.035,2.256,33.599-7.267,39.963c2.214-6.869-0.492-18.658,2.725-24.522
		c-5.109-6.791-13.447,0.741-11.807,9.082c-13.02,3.632-13.218,20.085-20.89,29.063c2.144-9.073-3.982-15.812,1.5-22.339
		c-14.125,14.105-38.869,17.593-47.821,36.871c-13.443-2.041-18.859,7.217-20.889,19.074c-4.289,2.913-6.273-3.078-8.174-5.449
		c-5.479,3.301-9.418,8.141-17.257,9.082c-4.977,8.344-17.976,8.667-29.972,9.99c5.202-11.093,16.167-9.779,26.339-16.348
		c11.543-7.454,17.94-22.356,29.064-27.248c6.05-2.661,9.729-2.378,14.532-5.45c10.148-6.488,22.311-16.423,30.88-26.339
		c5.896-6.823,9.214-12.96,16.349-18.165c6.416-4.681,13.496-7.677,19.073-14.531c0-2.423,0-4.844,0-7.267
		c2.816,0.092,4.339-1.11,6.357-1.816c5.648-6.291,11.955-12.483,16.349-20.89c4.046-7.742,4.607-18.892,12.715-23.613
		c2.13,3.019-0.617,7.438-0.909,10.898c5.101-2.771,8.664-7.079,10.899-12.716c5.531,1.129,1.488,11.832,2.725,17.257
		C322.686,546.631,317.195,548.104,312.689,550.562z M348.111,643.202c-6.161-4.555,0.342-13.041,2.725-17.256
		C352.574,630.732,347.398,636.42,348.111,643.202z M359.918,647.744c0.014-2.711,2.362-3.088,2.725-5.45
		C367.157,643.094,362.88,648.6,359.918,647.744z M444.386,568.727c-2.051-3.943-0.994-11.616,4.541-10.898
		C450.813,561.607,448.621,568.146,444.386,568.727z M452.56,545.112c-3.421-5.395,2.954-12.329,7.267-9.99
		C458.821,539.869,457.669,544.47,452.56,545.112z M468,569.635c-2.551-1.739,1.248-4.735,0.908-7.266
		c-3.36,0.575-5.407,2.463-9.99,1.816c-1.103-4.735,3.742-3.523,7.266-3.633c2.867-3.187,4.285-7.825,6.357-11.808
		C477.034,557.368,475.093,565.389,468,569.635z M503.421,580.534c-0.179-6.599,0.22-17.976,0.909-29.064
		c0.64-10.314,1.4-21.988,3.633-29.063c3.205,3.758,5.17,8.757,8.174,12.716C507.822,546.183,518.178,575.915,503.421,580.534z
		 M517.045,508.782c2.381-13.061,15.907-14.974,15.44-30.881c-4.609,1.456-8.265,11.708-14.532,14.532
		c-1.525-3.923-3.112-7.785-7.266-9.082c1.984,9.794,0.19,21.388-10.899,20.889c-3.494-6.007,5.345-11.217,1.816-17.256
		c-11.737,5.825-11.757,31.23-23.614,39.963c-9.18-10.248,9.812-23.27,11.808-36.33c0.89-5.821,0.136-12.995-3.633-18.165
		c-2.182,19.011-9.327,33.059-15.44,48.138c-4.602,1.453-8.852,3.259-12.715,5.449c-3.98-0.683,1.296-6.572-1.817-9.083
		c-3.984,11.455-15.191,15.688-23.615,22.707c1.056,2.88,5.635,2.237,6.359,5.449c-7.695,8.59,0.349,21.903-8.175,29.063
		c-0.294,7.118,2.927,20.362-4.541,24.522c-6.148-0.511-9.403-3.916-10.898-9.082c3.614-0.587,3.651,2.404,7.266,1.816
		c4.078-15.888,0.725-27.577,0-44.504c-10.816,6.071-9.058,32.675-31.789,19.981c-11.998,4.601,4.007,8.585,2.725,18.165
		c-6.447,0.997-8.633-2.266-13.624-2.725c-8.184,2.412-7.083,14.108-13.624,18.165c-11.122-1.896-13.302-12.735-15.44-23.614
		c-3.158,3.502-3.832,9.489-6.358,13.623c-3.53-0.707-6.916-1.561-9.083-3.633c-1.56-4.798,0.016-12.731-2.725-16.349
		c-3.333,2.722-2.931,9.18-7.266,10.899c-0.143-10.226-2.93-20.85,0-31.789c1.731-6.464,11.557-12.903,8.174-21.797
		c2.422,0,4.844,0,7.266,0c14.025-13.829,3.674-52.034,21.798-61.762c1.86,3.588,0.196,10.703,2.725,13.623
		c6.584-3.538,2.594-14.664,5.45-22.706c2.195-6.182,10.43-14.087,13.624-24.522c3.396-11.098,5.204-21.3,9.083-28.156
		c2.996-5.297,6.326-9.433,14.531-8.174c3.039,2.713,3.216,8.289,5.45,11.808c2.734-12.403,3.235-27.04,3.633-41.78
		c-7.279,4.225-3.151,19.858-13.624,20.89c-1.571-10.539,0.455-24.674-6.357-29.972c0.73-3.508,5.457-3.02,7.266-5.449
		c2.156-16.501-6.041-27.104-2.725-41.78c-5.028-3.146-15.302-1.046-20.89-3.633c-1.969-0.153-0.412,3.221-0.908,4.541
		c-4.457-4.928-11.164-7.607-12.715-15.44c0.908,0,1.817,0,2.725,0c13.972,5.093,30.945,9.141,48.137,12.715
		c17.003,3.536,36.534,1.207,49.045,10.899c-1.937,29.852-5.33,58.248-4.541,90.825c-9.661-6.64-7.327-26.028-6.358-44.504
		c0.93-17.734,6.073-35.212-2.725-42.688c2.376,27.07-11.008,51.437-5.449,77.201c2.116,9.806,26.218,27.21,36.33,29.972
		c5.151,1.407,11.229,0.289,15.439,0c-0.442-4.704-5.771-4.521-8.174-7.266c-0.763-18.927,3.631-32.7,6.357-48.137
		c10.85,0.839,19.04,5.601,21.798,12.715c6.032,15.556-14.907,41.637,2.725,52.678c-2.479-12.525-0.981-31.726,1.816-46.321
		c7.065,11.404,3.564,33.372,6.358,49.046c2.541,1.978,4.431-3.77,8.174-0.908C545.223,470.799,534.728,497.684,517.045,508.782z
		 M390.799,338.032c3.244-6.444,1.99-17.386,4.542-24.523c1.239,9.054,2.503,18.084,2.725,28.156
		c-2.721-3.556-6.227,1.151-10.899,0.908c-3.793-5.97-4.54-23.426,0.908-28.156C386.515,321.865,386.287,333.84,390.799,338.032z
		 M394.432,369.82c4.523,8.312,0.185,19.815-7.266,21.798C388.604,383.369,384.702,369.779,394.432,369.82z M544.292,352.564
		c-6.421-3.872-4.126-16.461-4.541-26.339c-4.989,0.46-3.185,7.713-5.449,10.899c-13.06-6.823,1.767-25.1-0.908-40.871
		c2.046,2.193,1.921,6.556,2.725,9.991c3.564-6.123,3.48-15.896,6.357-22.706c0.908,0,1.816,0,2.725,0
		C547.193,305.276,543.944,329.458,544.292,352.564z M593.338,516.048c-3.142-3.215-3.215-9.5-6.357-12.716
		c-1.351,11.092,5.033,26.365,4.541,42.688c-0.287,9.516-1.541,18.869-3.633,27.247c-2.119,0-4.238,0-6.357,0
		c0.252-5.197,4.01-6.889,6.357-9.99c-2.031-3.722-7.512-3.992-9.082-8.174c4.135-8.548-0.505-17.123,0-27.247
		c-4.77,3.708-2.314,14.64-9.991,15.439c-9.671-5.387-8.105-20.7-6.357-33.605c7.784-10.401,7.845-34.809,9.991-54.495
		c1.722-15.805,5.288-26.464,2.725-37.237c1.123-4.859,6.584-8.411,4.541-13.625c-1.268-2.732-4.701,1.888-6.357-0.908
		c-0.792-10.67-2.834-29.939,5.449-34.513c-2.662-3.696-6.565-6.15-7.267-11.807c3.216-0.491,2.233,3.216,5.45,2.725
		c-2.963-12.478-4.174-26.708-9.083-37.238c-8.429,1.562,1.221,21.203-7.266,22.707c-2.267-3.487-1.573-9.931-3.633-13.624
		c-5.872,7.916,0.488,23.933-2.725,35.422c-2.619-23.432-8.726-62.504,2.725-80.834c5.756,4.234,0.543,19.438,8.174,21.798
		c0.894-9.703-1.002-22.195,5.449-26.339c15.348,9.779,9.067,41.189,19.981,55.403c-1.188-14.882-5.089-33.768-1.816-52.678
		c19.701,9.985,10.152,45.896,18.165,69.935c4.744,14.229,13.961,24.404,15.44,43.596c1.353,17.562,0.92,35.334,2.725,51.77
		c-12.987-9.113-7.188-37.014-9.991-56.312c-6.373,6.862-3.735,16.953-4.541,24.523c-1.224,11.489-6.091,23.179-5.449,33.604
		c0.375,6.101,6.597,12.209,6.357,17.257c-0.327,6.905-10.869,12.02-11.807,19.981c-0.786,6.677,3.279,9.641,4.541,16.349
		C601.448,509.626,599.312,514.757,593.338,516.048z M615.136,493.342c6.357,6.358,3.019,22.413,6.358,31.789
		C611.845,522.451,611.917,503.181,615.136,493.342z M619.678,560.553c-5.053-0.397-6.727-4.173-7.267-9.083
		C618.354,550.977,619.761,555.019,619.678,560.553z M630.576,589.616c-6.543-1.024-11.012-4.125-16.349-6.357
		c-0.63-4.215-1.847-7.842-2.725-11.808c5.996,3.087,7.58,10.585,15.44,11.808c0-3.331,0-6.66,0-9.991
		C630.365,576.711,632.77,583.239,630.576,589.616z M638.75,575.993c-6.849-2.233-6.527-11.639-6.357-20.89
		c-3.055-0.028-1.85,4.205-3.633,5.449c-2.949-2.501-2.861-8.038-4.541-11.808c1.192-1.165,3.348-1.165,4.541,0
		c3.498-1.038,3.149-7.665,1.816-10.898C634.39,546.465,644.585,565.332,638.75,575.993z M652.374,567.818
		c-6.156-7.77-6.977-20.875-10.899-30.88c3.508-1.278,12.68,5.695,14.532,11.807C657.794,554.642,658.646,566.726,652.374,567.818z
		 M675.08,551.47c-7.634-0.237-4.853-10.89-8.174-15.439c1.073-1.046,3.211-1.028,5.449-0.908
		C674.523,538.899,677.641,545.919,675.08,551.47z M672.355,484.26c-1.895,1.435-1.779,4.879-5.449,4.541
		c-2.321-4.035-3.93-8.785-8.175-10.899c-1.59,5.979-0.591,14.547-6.357,16.349c-3.91-8.361-5.896-21.913-12.716-24.522
		c-9.404-33.438-0.188-74.857-12.715-102.632c-1.677-3.717-5.3-6.775-6.357-10.899c-1.432-5.576,1.008-16.886,0-23.614
		c3.97,10.259,8.9,19.558,12.715,29.972c5.801-9.569-2.907-19.265-3.633-29.972c-0.84-12.39,5.107-26.692-0.908-39.055
		c5.412,2.157,5.515,9.622,6.357,16.348c4.071-7.433,2.929-20.081,7.267-27.247c1.467-0.256,1.563,0.858,2.725,0.908
		c6.45,21.611,4.789,46.375,5.449,69.935c0.219,7.78,3.035,15.406,3.633,23.614c1.354,18.607,0.27,36.518,0,54.495
		c-6.091-10.258-3.863-28.834-12.716-36.33c2.908,14.375-0.608,27.365,2.726,39.055c2.838,9.951,12.395,17.768,12.715,28.156
		c6.864-2.823,1.478-17.9,4.541-24.523c5.003,3.263,2.803,9.936,3.634,14.532c3.389,18.749,17.676,33.5,17.256,56.312
		C674.134,505.491,674.611,493.509,672.355,484.26z"/>
</g>
</svg>
